<svg width="314" height="82" viewBox="0 0 314 82" fill="none" xmlns="http://www.w3.org/2000/svg">
<rect x="2.14111" y="2.25488" width="310.359" height="78.1147" stroke="white" stroke-width="3"/>
<path d="M59.7422 26.5234V55.4688H54.9609L55.0078 29.6875H55.8984L43.8281 55.4688H39.4219L27.3047 29.9922H28.1953L28.2422 55.4688H23.4609V26.5234H30.7031L41.9297 50.5H41.2266L52.4062 26.5234H59.7422ZM110.527 42.9297L105.558 31.0469L100.659 42.9297H110.527ZM111.933 46.2578H99.2766L95.4797 55.4688H90.4172L102.534 26.5234H108.441L120.792 55.4688H115.777L111.933 46.2578ZM151.467 55.4688V26.5234H167.288C170.897 26.5234 173.459 27.1719 174.975 28.4688C176.491 29.75 177.248 31.4688 177.248 33.625C177.248 35.375 176.827 36.8125 175.983 37.9375C175.139 39.0625 173.717 39.7578 171.717 40.0234V39.2734C174.608 39.4922 176.303 41.4297 176.803 45.0859L177.53 55.4688H172.748L172.022 45.8828C171.6 42.8984 170.178 41.4062 167.756 41.4062H156.248V55.4688H151.467ZM156.248 37.7969H166.092C168.702 37.7969 170.444 37.4766 171.319 36.8359C172.194 36.1953 172.631 35.3828 172.631 34.3984C172.631 32.8672 172.311 31.7734 171.67 31.1172C171.03 30.4609 169.584 30.1328 167.334 30.1328H156.248V37.7969ZM232.345 35.1016H227.587C227.587 32.6641 227.22 31.1875 226.486 30.6719C225.752 30.1406 224.017 29.875 221.283 29.875C217.923 29.875 215.767 30.1328 214.814 30.6484C213.861 31.1484 213.384 32.1641 213.384 33.6953C213.384 35.2109 213.744 36.1797 214.462 36.6016C215.197 37.0234 217.634 37.3203 221.775 37.4922C226.572 37.6797 229.783 38.3125 231.408 39.3906C233.048 40.4688 233.869 43.0469 233.869 47.125C233.869 50.7188 233.025 53.0625 231.337 54.1562C229.666 55.25 226.103 55.7969 220.65 55.7969C215.9 55.7969 212.697 55.25 211.041 54.1562C209.4 53.0469 208.58 50.875 208.58 47.6406L208.556 45.9062H213.314V47.0781C213.314 49.4375 213.689 50.8828 214.439 51.4141C215.189 51.9297 217.298 52.1875 220.767 52.1875C224.767 52.1875 227.181 51.9297 228.009 51.4141C228.837 50.8828 229.252 49.3672 229.252 46.8672C229.252 44.3984 228.947 42.9453 228.337 42.5078C227.728 42.0547 226.533 41.7812 224.752 41.6875L217.439 41.2422C211.658 40.8828 208.767 38.5547 208.767 34.2578C208.767 31.2422 209.619 29.1562 211.322 28C213.025 26.8438 216.15 26.2656 220.697 26.2656C225.306 26.2656 228.4 26.8047 229.978 27.8828C231.556 28.9609 232.345 31.3672 232.345 35.1016ZM288.005 35.1016H283.247C283.247 32.6641 282.88 31.1875 282.145 30.6719C281.411 30.1406 279.677 29.875 276.942 29.875C273.583 29.875 271.427 30.1328 270.473 30.6484C269.52 31.1484 269.044 32.1641 269.044 33.6953C269.044 35.2109 269.403 36.1797 270.122 36.6016C270.856 37.0234 273.294 37.3203 277.434 37.4922C282.231 37.6797 285.442 38.3125 287.067 39.3906C288.708 40.4688 289.528 43.0469 289.528 47.125C289.528 50.7188 288.684 53.0625 286.997 54.1562C285.325 55.25 281.762 55.7969 276.309 55.7969C271.559 55.7969 268.356 55.25 266.7 54.1562C265.059 53.0469 264.239 50.875 264.239 47.6406L264.216 45.9062H268.973V47.0781C268.973 49.4375 269.348 50.8828 270.098 51.4141C270.848 51.9297 272.958 52.1875 276.427 52.1875C280.427 52.1875 282.841 51.9297 283.669 51.4141C284.497 50.8828 284.911 49.3672 284.911 46.8672C284.911 44.3984 284.606 42.9453 283.997 42.5078C283.387 42.0547 282.192 41.7812 280.411 41.6875L273.098 41.2422C267.317 40.8828 264.427 38.5547 264.427 34.2578C264.427 31.2422 265.278 29.1562 266.981 28C268.684 26.8438 271.809 26.2656 276.356 26.2656C280.966 26.2656 284.059 26.8047 285.637 27.8828C287.216 28.9609 288.005 31.3672 288.005 35.1016Z" fill="white"/>
</svg>
