<svg width="206" height="192" viewBox="0 0 206 192" fill="none" xmlns="http://www.w3.org/2000/svg">
<path d="M62.2637 184H129.753H62.2637ZM96.0084 184V129.846V184ZM150 82.4615C150 61.0369 149.966 25.5027 149.949 14.7692C149.949 12.9739 149.238 11.2521 147.973 9.98266C146.707 8.71318 144.99 8 143.2 8L48.8038 8.11C47.0175 8.10999 45.3041 8.82027 44.039 10.0852C42.7739 11.3501 42.0604 13.0664 42.0548 14.8581C42.0548 27.7958 42 69.5069 42 82.4615C42 109.657 77.0102 129.846 95.9916 129.846C114.973 129.846 150 109.657 150 82.4615Z" stroke="#EBA550" stroke-width="16" stroke-linecap="round" stroke-linejoin="round"/>
<path d="M41.8462 29H8V35.5C8 57.9331 22.1942 81 41.8462 81V29ZM150.154 29H184V35.5C184 57.9331 169.806 81 150.154 81" fill="#EBA550"/>
<path d="M150.154 29H184V35.5C184 57.9331 169.806 81 150.154 81M41.8462 29H8V35.5C8 57.9331 22.1942 81 41.8462 81V29Z" stroke="#EBA550" stroke-width="16" stroke-linecap="round" stroke-linejoin="round"/>
<path d="M34.6308 188H63.3763H34.6308ZM49.0036 188V166.154V188ZM72 147.038C72 138.396 71.9856 124.061 71.9784 119.731C71.9784 119.007 71.6756 118.312 71.1365 117.8C70.5974 117.288 69.8663 117 69.1039 117L28.8979 117.044C28.1371 117.044 27.4073 117.331 26.8685 117.841C26.3296 118.351 26.0257 119.044 26.0234 119.767C26.0234 124.986 26 141.812 26 147.038C26 158.009 40.9117 166.154 48.9964 166.154C57.0811 166.154 72 158.009 72 147.038Z" stroke="#B94E36" stroke-width="8" stroke-linecap="round" stroke-linejoin="round"/>
<path d="M26.2308 125H12V127.625C12 136.685 17.968 146 26.2308 146V125ZM71.7692 125H86V127.625C86 136.685 80.032 146 71.7692 146" fill="#B94E36"/>
<path d="M71.7692 125H86V127.625C86 136.685 80.032 146 71.7692 146M26.2308 125H12V127.625C12 136.685 17.968 146 26.2308 146V125Z" stroke="#B94E36" stroke-width="8" stroke-linecap="round" stroke-linejoin="round"/>
<path d="M115.072 186H161.94H115.072ZM138.506 186V148.154V186ZM176 115.038C176 100.066 175.977 75.232 175.965 67.7308C175.965 66.4761 175.471 65.2728 174.592 64.3856C173.713 63.4984 172.521 63 171.278 63L105.725 63.0769C104.484 63.0769 103.294 63.5733 102.416 64.4573C101.537 65.3413 101.042 66.5407 101.038 67.7929C101.038 76.8345 101 105.985 101 115.038C101 134.044 125.313 148.154 138.494 148.154C151.676 148.154 176 134.044 176 115.038Z" stroke="#535353" stroke-width="12" stroke-linecap="round" stroke-linejoin="round"/>
<path d="M100.654 78H77V82.5C77 98.0306 86.9198 114 100.654 114V78ZM176.346 78H200V82.5C200 98.0306 190.08 114 176.346 114" fill="#535353"/>
<path d="M176.346 78H200V82.5C200 98.0306 190.08 114 176.346 114M100.654 78H77V82.5C77 98.0306 86.9198 114 100.654 114V78Z" stroke="#535353" stroke-width="12" stroke-linecap="round" stroke-linejoin="round"/>
</svg>
